<?xml version="1.0" standalone="no"?>
<!DOCTYPE svg PUBLIC "-//W3C//DTD SVG 20010904//EN"
 "http://www.w3.org/TR/2001/REC-SVG-20010904/DTD/svg10.dtd">
<svg version="1.0" xmlns="http://www.w3.org/2000/svg"
 width="700.000000pt" height="700.000000pt" viewBox="0 0 700.000000 700.000000"
 preserveAspectRatio="xMidYMid meet">
<metadata>
Created by potrace 1.11, written by Peter Selinger 2001-2013
</metadata>
<g transform="translate(0.000000,700.000000) scale(0.100000,-0.100000)"
fill="#000000" stroke="none">
<path d="M6425 6978 c-83 -23 -611 -179 -705 -208 -36 -10 -87 -26 -115 -35
-89 -27 -1039 -307 -1070 -315 -16 -4 -70 -20 -120 -35 -49 -15 -128 -38 -175
-52 -47 -13 -182 -53 -300 -88 -118 -35 -253 -75 -300 -89 -47 -13 -152 -45
-235 -69 -82 -25 -166 -50 -185 -55 -19 -5 -190 -56 -380 -112 -190 -56 -366
-109 -392 -116 -61 -18 -125 -37 -213 -64 -38 -11 -77 -23 -85 -25 -196 -48
-306 -135 -376 -295 -19 -44 -19 -88 -22 -1879 -1 -1009 -4 -1837 -6 -1839 -3
-2 -40 3 -82 12 -121 25 -186 31 -359 31 -230 0 -368 -21 -571 -86 -347 -111
-608 -331 -701 -590 -36 -102 -38 -267 -5 -374 90 -289 408 -534 832 -640 52
-13 113 -26 135 -29 22 -3 69 -10 105 -15 99 -13 410 -6 520 13 520 90 891
355 986 706 16 61 17 172 18 1703 1 1446 3 1638 16 1642 61 17 310 90 378 110
45 14 119 36 165 49 45 14 186 54 312 91 127 36 257 75 290 85 33 10 276 82
540 159 264 77 581 170 705 206 124 37 315 93 425 125 110 32 238 70 285 83
210 62 368 107 376 107 7 0 12 -2477 5 -2511 0 -4 -18 -3 -38 2 -21 5 -56 11
-77 14 -21 3 -42 7 -45 9 -11 7 -184 20 -266 20 -227 0 -418 -31 -619 -101
-470 -163 -749 -510 -694 -863 49 -314 352 -587 791 -714 237 -69 569 -89 802
-51 64 11 141 27 170 35 93 25 181 54 189 62 6 4 16 8 24 8 21 0 191 88 265
138 38 25 101 78 141 116 108 105 163 189 209 320 l22 61 2 2490 c2 1658 -1
2505 -8 2535 -33 148 -175 294 -315 325 -70 16 -180 13 -249 -7z"/>
</g>
</svg>
